<svg width="152" height="45" viewBox="0 0 152 45" fill="none" xmlns="http://www.w3.org/2000/svg">
<path d="M150.658 39.8104C150.658 42.2085 148.73 44.151 146.344 44.151H5.16147C2.77709 44.151 0.841675 42.2085 0.841675 39.8104V5.19543C0.841675 2.79846 2.77709 0.849152 5.16147 0.849152H146.343C148.73 0.849152 150.657 2.79846 150.657 5.19543L150.658 39.8104Z" fill="black"/>
<path d="M145.889 0.901418C148.487 0.901418 150.601 3.02064 150.601 5.62501V39.375C150.601 41.9794 148.487 44.0986 145.889 44.0986H5.61111C3.01317 44.0986 0.89918 41.9794 0.89918 39.375V5.62501C0.89918 3.02064 3.01317 0.901418 5.61111 0.901418H145.889ZM145.889 1.41886e-05H5.61111C2.5264 1.41886e-05 0 2.53267 0 5.62501V39.375C0 42.4673 2.5264 45 5.61111 45H145.889C148.974 45 151.5 42.4673 151.5 39.375V5.62501C151.5 2.53267 148.974 1.41886e-05 145.889 1.41886e-05Z" fill="#A6A6A6"/>
<path d="M33.8103 22.257C33.7778 18.6311 36.7719 16.8671 36.9088 16.785C35.2131 14.3066 32.5849 13.968 31.6613 13.941C29.4539 13.7081 27.3127 15.2651 26.1882 15.2651C25.0413 15.2651 23.3097 13.9635 21.4434 14.0017C19.0419 14.0389 16.7952 15.4327 15.563 17.5972C13.02 22.0106 14.9166 28.4962 17.3529 32.0636C18.5717 33.8107 19.9958 35.7615 21.8598 35.6929C23.6834 35.6175 24.3646 34.5274 26.5653 34.5274C28.7457 34.5274 29.3854 35.6929 31.2865 35.649C33.2436 35.6175 34.4758 33.894 35.6519 32.1311C37.0603 30.1286 37.6259 28.1565 37.6483 28.0552C37.6023 28.0395 33.8474 26.6029 33.8103 22.257Z" fill="white"/>
<path d="M30.2192 11.5942C31.2 10.3646 31.8711 8.69173 31.6848 6.99411C30.2652 7.05711 28.4899 7.97849 27.4675 9.18111C26.563 10.2409 25.755 11.9779 25.9638 13.6114C27.5584 13.7306 29.1958 12.8047 30.2192 11.5942Z" fill="white"/>
<path d="M60.2016 35.442H57.653L56.257 31.0443H51.4045L50.0746 35.442H47.5934L52.401 20.4705H55.3704L60.2016 35.442ZM55.8361 29.1993L54.5736 25.29C54.4401 24.8906 54.1898 23.9501 53.8206 22.4696H53.7757C53.6287 23.1063 53.3919 24.0468 53.0665 25.29L51.8264 29.1993H55.8361Z" fill="white"/>
<path d="M72.5651 29.9114C72.5651 31.7474 72.0702 33.1987 71.0804 34.2641C70.1938 35.2124 69.0929 35.6861 67.7788 35.6861C66.3603 35.6861 65.3413 35.1753 64.7208 34.1538H64.6759V39.8407H62.2833V28.2003C62.2833 27.0461 62.253 25.8614 62.1946 24.6464H64.2988L64.4323 26.3576H64.4772C65.2751 25.0683 66.486 24.4248 68.111 24.4248C69.3813 24.4248 70.4418 24.9277 71.2902 25.9346C72.1409 26.9426 72.5651 28.2678 72.5651 29.9114ZM70.1276 29.9992C70.1276 28.9484 69.892 28.0822 69.4184 27.4004C68.901 26.6894 68.2064 26.3339 67.3355 26.3339C66.7452 26.3339 66.2088 26.5319 65.7296 26.9223C65.2493 27.3161 64.9351 27.8302 64.7881 28.4669C64.714 28.7639 64.677 29.0069 64.677 29.1982V30.9982C64.677 31.7834 64.9171 32.4461 65.3975 32.9872C65.8778 33.5283 66.5017 33.7983 67.2693 33.7983C68.1705 33.7983 68.8719 33.4496 69.3735 32.7543C69.8762 32.0579 70.1276 31.1399 70.1276 29.9992Z" fill="white"/>
<path d="M84.9511 29.9114C84.9511 31.7474 84.4562 33.1987 83.4653 34.2641C82.5798 35.2124 81.4789 35.6861 80.1648 35.6861C78.7463 35.6861 77.7273 35.1753 77.1079 34.1538H77.063V39.8407H74.6704V28.2003C74.6704 27.0461 74.6401 25.8614 74.5817 24.6464H76.6859L76.8195 26.3576H76.8643C77.6611 25.0683 78.872 24.4248 80.4981 24.4248C81.7673 24.4248 82.8278 24.9277 83.6785 25.9346C84.5258 26.9426 84.9511 28.2678 84.9511 29.9114ZM82.5136 29.9992C82.5136 28.9484 82.2768 28.0822 81.8032 27.4004C81.2859 26.6894 80.5935 26.3339 79.7215 26.3339C79.1301 26.3339 78.5948 26.5319 78.1145 26.9223C77.6342 27.3161 77.3211 27.8302 77.1741 28.4669C77.1011 28.7639 77.063 29.0069 77.063 29.1982V30.9982C77.063 31.7834 77.3031 32.4461 77.7812 32.9872C78.2615 33.5272 78.8855 33.7983 79.6553 33.7983C80.5565 33.7983 81.2579 33.4496 81.7595 32.7543C82.2622 32.0579 82.5136 31.1399 82.5136 29.9992Z" fill="white"/>
<path d="M98.7993 31.2436C98.7993 32.5171 98.3582 33.5532 97.4728 34.3531C96.4998 35.2272 95.1453 35.6637 93.4048 35.6637C91.7977 35.6637 90.5094 35.3532 89.5342 34.7311L90.0886 32.7319C91.139 33.3687 92.2915 33.6882 93.5473 33.6882C94.4484 33.6882 95.1498 33.4834 95.6537 33.0762C96.1553 32.6689 96.4056 32.1222 96.4056 31.4404C96.4056 30.8329 96.1991 30.3211 95.785 29.9059C95.3731 29.4908 94.6852 29.1049 93.7246 28.7483C91.1098 27.7707 89.8035 26.3386 89.8035 24.4553C89.8035 23.2246 90.2614 22.2154 91.1783 21.4302C92.0918 20.6438 93.3105 20.2512 94.8345 20.2512C96.1935 20.2512 97.3224 20.4886 98.2236 20.9622L97.6254 22.9174C96.7838 22.4584 95.8321 22.2289 94.7671 22.2289C93.9255 22.2289 93.2678 22.4371 92.7965 22.8511C92.3981 23.2212 92.1984 23.6723 92.1984 24.2067C92.1984 24.7984 92.4262 25.2878 92.884 25.6726C93.2824 26.0281 94.0063 26.4128 95.0567 26.8279C96.3416 27.3466 97.2854 27.9529 97.8925 28.6482C98.4974 29.3412 98.7993 30.2086 98.7993 31.2436Z" fill="white"/>
<path d="M106.71 26.4465H104.073V31.6879C104.073 33.021 104.537 33.687 105.469 33.687C105.896 33.687 106.251 33.6499 106.531 33.5757L106.598 35.397C106.126 35.5737 105.506 35.6625 104.737 35.6625C103.792 35.6625 103.054 35.3734 102.521 34.7963C101.99 34.218 101.723 33.2483 101.723 31.8859V26.4443H100.152V24.6443H101.723V22.6677L104.073 21.9567V24.6443H106.71V26.4465Z" fill="white"/>
<path d="M118.609 29.9554C118.609 31.6148 118.135 32.9771 117.19 34.0425C116.199 35.1394 114.884 35.6861 113.245 35.6861C111.664 35.6861 110.406 35.1608 109.468 34.11C108.53 33.0593 108.061 31.7329 108.061 30.1343C108.061 28.4614 108.544 27.0912 109.512 26.0258C110.478 24.9593 111.782 24.426 113.422 24.426C115.002 24.426 116.273 24.9514 117.233 26.0033C118.151 27.0237 118.609 28.341 118.609 29.9554ZM116.126 30.033C116.126 29.0374 115.914 28.1835 115.484 27.4714C114.983 26.6097 114.266 26.1799 113.337 26.1799C112.375 26.1799 111.644 26.6108 111.143 27.4714C110.713 28.1847 110.501 29.052 110.501 30.078C110.501 31.0736 110.713 31.9275 111.143 32.6385C111.66 33.5003 112.383 33.93 113.315 33.93C114.229 33.93 114.946 33.4913 115.463 32.616C115.904 31.8904 116.126 31.0275 116.126 30.033Z" fill="white"/>
<path d="M126.386 26.7558C126.149 26.7119 125.896 26.6894 125.632 26.6894C124.79 26.6894 124.139 27.0078 123.681 27.6457C123.283 28.2082 123.083 28.9192 123.083 29.7776V35.4419H120.692L120.714 28.0462C120.714 26.8019 120.684 25.6691 120.624 24.6476H122.708L122.796 26.7131H122.862C123.115 26.0032 123.513 25.4317 124.058 25.0031C124.591 24.6172 125.167 24.4248 125.788 24.4248C126.009 24.4248 126.208 24.4406 126.386 24.4687V26.7558Z" fill="white"/>
<path d="M137.086 29.5334C137.086 29.9632 137.058 30.3254 136.999 30.6213H129.821C129.849 31.6878 130.196 32.5034 130.862 33.0659C131.467 33.5688 132.249 33.8208 133.21 33.8208C134.273 33.8208 135.242 33.6509 136.114 33.3101L136.489 34.9751C135.47 35.4206 134.267 35.6422 132.879 35.6422C131.209 35.6422 129.898 35.1494 128.944 34.1651C127.993 33.1807 127.516 31.8588 127.516 30.2006C127.516 28.5727 127.959 27.2171 128.847 26.1359C129.776 24.9817 131.032 24.4046 132.612 24.4046C134.164 24.4046 135.339 24.9817 136.137 26.1359C136.769 27.0528 137.086 28.1868 137.086 29.5334ZM134.805 28.9113C134.82 28.2003 134.664 27.5861 134.34 27.0674C133.926 26.4003 133.29 26.0673 132.433 26.0673C131.651 26.0673 131.015 26.3924 130.529 27.0449C130.131 27.5636 129.894 28.1857 129.821 28.9102H134.805V28.9113Z" fill="white"/>
<path d="M55.045 11.2603C55.045 12.5844 54.6489 13.5812 53.8577 14.2505C53.1249 14.8682 52.0835 15.1775 50.7346 15.1775C50.0657 15.1775 49.4934 15.1483 49.0142 15.0898V7.8549C49.6393 7.75365 50.3126 7.7019 51.0398 7.7019C52.3248 7.7019 53.2933 7.98203 53.9464 8.54228C54.6781 9.17565 55.045 10.0813 55.045 11.2603ZM53.805 11.2929C53.805 10.4345 53.5783 9.7764 53.1249 9.3174C52.6715 8.85953 52.0094 8.63003 51.1375 8.63003C50.7671 8.63003 50.4518 8.65478 50.1903 8.70653V14.2067C50.3351 14.2292 50.5999 14.2393 50.9848 14.2393C51.8849 14.2393 52.5795 13.9884 53.0688 13.4867C53.5581 12.9849 53.805 12.2537 53.805 11.2929Z" fill="white"/>
<path d="M61.6201 12.4166C61.6201 13.2323 61.3878 13.9005 60.9232 14.4248C60.4362 14.9636 59.7909 15.2325 58.9851 15.2325C58.2086 15.2325 57.5902 14.9749 57.129 14.4574C56.6689 13.941 56.4388 13.2896 56.4388 12.5044C56.4388 11.6831 56.6756 11.0093 57.1514 10.4861C57.6273 9.96302 58.2669 9.7009 59.0727 9.7009C59.8493 9.7009 60.4732 9.95852 60.9457 10.4749C61.3946 10.9766 61.6201 11.6246 61.6201 12.4166ZM60.4003 12.4549C60.4003 11.9655 60.2948 11.5459 60.0849 11.196C59.838 10.773 59.4868 10.5615 59.03 10.5615C58.5576 10.5615 58.1985 10.773 57.9516 11.196C57.7406 11.5459 57.6362 11.9723 57.6362 12.4763C57.6362 12.9656 57.7417 13.3853 57.9516 13.7351C58.2063 14.1581 58.5609 14.3696 59.0188 14.3696C59.4677 14.3696 59.8201 14.1548 60.0737 13.7239C60.2914 13.3673 60.4003 12.9443 60.4003 12.4549Z" fill="white"/>
<path d="M70.4363 9.80884L68.781 15.1121H67.7037L67.018 12.8092C66.844 12.2343 66.7026 11.6628 66.5927 11.0958H66.5713C66.4692 11.6786 66.3278 12.249 66.146 12.8092L65.4177 15.1121H64.328L62.7715 9.80884H63.9801L64.5783 12.33C64.723 12.9262 64.842 13.4943 64.9374 14.0321H64.9587C65.0462 13.5888 65.191 13.0241 65.3952 12.3412L66.146 9.80996H67.1044L67.8237 12.2872C67.9977 12.8913 68.1391 13.473 68.2479 14.0332H68.2805C68.3602 13.4876 68.4802 12.906 68.6396 12.2872L69.2815 9.80996H70.4363V9.80884Z" fill="white"/>
<path d="M76.5333 15.1121H75.3572V12.0746C75.3572 11.1386 75.0026 10.6706 74.2911 10.6706C73.9421 10.6706 73.6604 10.7989 73.4416 11.0565C73.225 11.3141 73.115 11.6179 73.115 11.9655V15.111H71.939V11.3243C71.939 10.8585 71.9244 10.3534 71.8963 9.80663H72.9299L72.9849 10.6358H73.0174C73.1543 10.3781 73.3586 10.1655 73.6268 9.99564C73.9455 9.79764 74.3024 9.69751 74.6929 9.69751C75.1867 9.69751 75.5974 9.85726 75.924 10.1779C76.3302 10.5705 76.5333 11.1566 76.5333 11.9351V15.1121Z" fill="white"/>
<path d="M79.7766 15.1121H78.6016V7.37543H79.7766V15.1121Z" fill="white"/>
<path d="M86.7007 12.4166C86.7007 13.2323 86.4683 13.9005 86.0037 14.4248C85.5167 14.9636 84.8703 15.2325 84.0657 15.2325C83.288 15.2325 82.6696 14.9749 82.2095 14.4574C81.7494 13.941 81.5193 13.2896 81.5193 12.5044C81.5193 11.6831 81.7561 11.0093 82.232 10.4861C82.7078 9.96302 83.3474 9.7009 84.1521 9.7009C84.9298 9.7009 85.5526 9.95852 86.0262 10.4749C86.4751 10.9766 86.7007 11.6246 86.7007 12.4166ZM85.4797 12.4549C85.4797 11.9655 85.3742 11.5459 85.1643 11.196C84.9186 10.773 84.5662 10.5615 84.1106 10.5615C83.637 10.5615 83.2779 10.773 83.0321 11.196C82.8211 11.5459 82.7168 11.9723 82.7168 12.4763C82.7168 12.9656 82.8222 13.3853 83.0321 13.7351C83.2868 14.1581 83.6415 14.3696 84.0993 14.3696C84.5482 14.3696 84.8995 14.1548 85.1531 13.7239C85.3719 13.3673 85.4797 12.9443 85.4797 12.4549Z" fill="white"/>
<path d="M92.3925 15.1121H91.3365L91.249 14.5013H91.2164C90.8551 14.9884 90.34 15.2325 89.6712 15.2325C89.1718 15.2325 88.7678 15.0716 88.4636 14.7521C88.1876 14.4619 88.0495 14.1008 88.0495 13.6721C88.0495 13.0241 88.3189 12.5303 88.8609 12.1883C89.4018 11.8463 90.1627 11.6786 91.1424 11.6865V11.5875C91.1424 10.8889 90.7765 10.5401 90.0437 10.5401C89.5219 10.5401 89.0618 10.6718 88.6645 10.9328L88.4255 10.1588C88.917 9.8539 89.5241 9.7009 90.2401 9.7009C91.6227 9.7009 92.3162 10.4321 92.3162 11.8946V13.8476C92.3162 14.3775 92.342 14.7994 92.3925 15.1121ZM91.1716 13.2896V12.4718C89.8743 12.4493 89.2256 12.8059 89.2256 13.5405C89.2256 13.8173 89.2997 14.0243 89.4512 14.1626C89.6027 14.301 89.7957 14.3696 90.0258 14.3696C90.2839 14.3696 90.5252 14.2875 90.7451 14.1244C90.9662 13.9601 91.102 13.752 91.1525 13.4966C91.1648 13.4393 91.1716 13.3695 91.1716 13.2896Z" fill="white"/>
<path d="M99.0754 15.1121H98.0317L97.9767 14.2604H97.9442C97.6109 14.9084 97.043 15.2324 96.2452 15.2324C95.6077 15.2324 95.0769 14.9816 94.6561 14.4798C94.2353 13.9781 94.0254 13.3267 94.0254 12.5268C94.0254 11.6684 94.2532 10.9732 94.7111 10.4422C95.1544 9.94718 95.6975 9.69968 96.3439 9.69968C97.0543 9.69968 97.5514 9.9393 97.8342 10.4197H97.8567V7.37543H99.0339V13.6833C99.0339 14.1997 99.0473 14.6756 99.0754 15.1121ZM97.8567 12.8756V11.9913C97.8567 11.8383 97.8454 11.7146 97.8241 11.6201C97.7579 11.3366 97.6154 11.0981 97.3988 10.9057C97.18 10.7133 96.9162 10.6166 96.6121 10.6166C96.1733 10.6166 95.8299 10.7909 95.5774 11.1408C95.3272 11.4907 95.2004 11.9373 95.2004 12.4829C95.2004 13.0072 95.3204 13.4324 95.5617 13.7598C95.8165 14.1086 96.1599 14.2829 96.5897 14.2829C96.9757 14.2829 97.2843 14.1378 97.5189 13.8464C97.7456 13.5776 97.8567 13.2536 97.8567 12.8756Z" fill="white"/>
<path d="M109.134 12.4166C109.134 13.2323 108.902 13.9005 108.437 14.4248C107.95 14.9636 107.306 15.2325 106.499 15.2325C105.723 15.2325 105.105 14.9749 104.643 14.4574C104.183 13.941 103.953 13.2896 103.953 12.5044C103.953 11.6831 104.189 11.0093 104.665 10.4861C105.141 9.96302 105.781 9.7009 106.588 9.7009C107.363 9.7009 107.988 9.95852 108.459 10.4749C108.908 10.9766 109.134 11.6246 109.134 12.4166ZM107.915 12.4549C107.915 11.9655 107.81 11.5459 107.6 11.196C107.352 10.773 107.002 10.5615 106.544 10.5615C106.072 10.5615 105.713 10.773 105.465 11.196C105.254 11.5459 105.15 11.9723 105.15 12.4763C105.15 12.9656 105.255 13.3853 105.465 13.7351C105.72 14.1581 106.075 14.3696 106.533 14.3696C106.981 14.3696 107.335 14.1548 107.589 13.7239C107.805 13.3673 107.915 12.9443 107.915 12.4549Z" fill="white"/>
<path d="M115.458 15.1121H114.283V12.0746C114.283 11.1386 113.928 10.6706 113.215 10.6706C112.866 10.6706 112.585 10.7989 112.367 11.0565C112.149 11.3141 112.04 11.6179 112.04 11.9655V15.111H110.863V11.3243C110.863 10.8585 110.85 10.3534 110.822 9.80663H111.854L111.909 10.6358H111.942C112.08 10.3781 112.284 10.1655 112.551 9.99564C112.871 9.79764 113.227 9.69751 113.618 9.69751C114.111 9.69751 114.522 9.85726 114.848 10.1779C115.256 10.5705 115.458 11.1566 115.458 11.9351V15.1121Z" fill="white"/>
<path d="M123.373 10.692H122.078V13.2683C122.078 13.923 122.308 14.2504 122.763 14.2504C122.974 14.2504 123.149 14.2324 123.287 14.1953L123.318 15.0897C123.085 15.1774 122.78 15.2213 122.404 15.2213C121.94 15.2213 121.578 15.0795 121.317 14.796C121.054 14.5125 120.924 14.0355 120.924 13.3662V10.692H120.151V9.80891H120.924V8.83691L122.076 8.48816V9.80778H123.371V10.692H123.373Z" fill="white"/>
<path d="M129.599 15.1121H128.421V12.0971C128.421 11.1464 128.067 10.6706 127.356 10.6706C126.811 10.6706 126.439 10.9462 126.234 11.4974C126.199 11.6133 126.179 11.7551 126.179 11.9216V15.1109H125.004V7.37543H126.179V10.5716H126.202C126.572 9.98993 127.103 9.69968 127.791 9.69968C128.278 9.69968 128.681 9.85943 129.001 10.1801C129.399 10.5794 129.599 11.1734 129.599 11.9587V15.1121Z" fill="white"/>
<path d="M136.021 12.2096C136.021 12.4211 136.005 12.5988 135.977 12.744H132.45C132.466 13.2682 132.634 13.6676 132.961 13.9443C133.259 14.1918 133.644 14.3156 134.116 14.3156C134.638 14.3156 135.113 14.2323 135.542 14.0647L135.726 14.8837C135.224 15.102 134.634 15.2111 133.951 15.2111C133.131 15.2111 132.486 14.9692 132.019 14.4855C131.55 14.0017 131.318 13.3526 131.318 12.5381C131.318 11.7382 131.535 11.0722 131.971 10.5412C132.427 9.9742 133.043 9.6907 133.821 9.6907C134.581 9.6907 135.159 9.9742 135.55 10.5412C135.865 10.9912 136.021 11.5481 136.021 12.2096ZM134.899 11.9047C134.908 11.5548 134.831 11.2533 134.671 10.9991C134.467 10.6717 134.156 10.5075 133.735 10.5075C133.351 10.5075 133.038 10.6672 132.799 10.9878C132.604 11.2432 132.488 11.5481 132.45 11.9047H134.899Z" fill="white"/>
</svg>
