<svg width="60" height="60" viewBox="0 0 60 60" fill="none" xmlns="http://www.w3.org/2000/svg">
<path d="M56.8465 20.0373C57.0085 16.3087 55.6636 12.6689 53.1067 9.91506C50.5497 7.16125 46.989 5.51796 43.2045 5.34514C40.9579 5.35075 38.7514 5.93128 36.8011 7.02984C34.7831 5.90935 32.4965 5.34363 30.1806 5.39188C27.8646 5.44013 25.6045 6.10056 23.6364 7.30409C21.5946 6.01687 19.2195 5.33673 16.7955 5.34514C13.0109 5.51796 9.45027 7.16125 6.89325 9.91506C4.33626 12.6689 2.99145 16.3087 3.15337 20.0373V26.8936H56.8465V20.0373ZM50.8806 21.0167H9.11927V20.0373C8.96528 17.8689 9.68446 15.728 11.1212 14.0781C12.5578 12.4282 14.5964 11.4021 16.7955 11.222C18.5796 11.2243 20.2923 11.9132 21.5682 13.1418L23.6364 15.1007L25.7045 13.1418C26.9214 11.9831 28.5329 11.3129 30.2245 11.2622C31.9162 11.2115 33.5662 11.7839 34.8523 12.8675L36.7614 14.513L38.7102 12.8675C39.9684 11.8208 41.5577 11.2389 43.2045 11.222C45.4035 11.4021 47.4421 12.4282 48.8788 14.0781C50.3155 15.728 51.0346 17.8689 50.8806 20.0373V21.0167ZM59.1534 28.8526V34.7294C55.375 34.7294 55.1761 35.2779 54.8579 36.0224C54.4714 37.2489 53.739 38.342 52.7462 39.1744C51.7534 40.0067 50.5408 40.5441 49.25 40.7239C47.8168 41.0773 46.3166 41.0726 44.8858 40.7099C43.455 40.3473 42.1388 39.6383 41.0568 38.6473C40.0227 37.8638 39.5852 37.5503 38.6705 37.5503H38.2329C38.2329 37.5503 38.2329 37.5503 38.2329 37.8246C37.4412 39.2184 36.236 40.3405 34.7787 41.0407C33.3215 41.741 31.6819 41.9858 30.0795 41.7425C28.5083 41.9442 26.9117 41.679 25.4945 40.981C24.0773 40.2829 22.9039 39.1838 22.125 37.8246C22.1325 37.7203 22.1325 37.6155 22.125 37.5112H21.3295C20.4147 37.5112 19.9773 37.8246 18.9432 38.6082C17.8651 39.6053 16.549 40.3184 15.1168 40.6813C13.6847 41.0443 12.1827 41.0455 10.75 40.6847C9.45909 40.5049 8.24661 39.9675 7.25377 39.1351C6.26093 38.3028 5.52858 37.2097 5.14201 35.9832C4.82383 35.2388 4.62496 34.6903 0.846558 34.6903V28.8526C7.36928 28.8526 9.43745 30.7724 10.6705 33.9067C11.0284 34.7687 11.0284 34.7687 12.0227 35.0037C13.017 35.2388 14.0511 35.0037 15.2443 34.0242C16.9384 32.5904 19.096 31.7986 21.3295 31.791C22.4984 31.714 23.664 31.9823 24.6773 32.5616C25.6905 33.141 26.5051 34.0049 27.017 35.0429C27.4147 35.7873 27.6534 36.1399 30 36.1399C32.3465 36.1399 32.5852 35.7873 33.0227 35.0429C33.519 34.0012 34.3247 33.1325 35.3332 32.5518C36.3417 31.9711 37.5055 31.7058 38.6705 31.791C40.9193 31.8311 43.0786 32.6653 44.7556 34.1418C45.9488 35.0821 46.4261 35.4347 47.9773 35.1212C49.5284 34.8078 48.9715 34.8861 49.3295 34.0242C50.5625 30.7724 52.6306 28.8526 59.1534 28.8526ZM50.8806 43.5448H56.8465V47.4627C56.8361 49.2779 56.0995 51.0158 54.7965 52.2995C53.4934 53.583 51.7291 54.3088 49.8864 54.319H10.1136C8.27085 54.3088 6.50655 53.583 5.20352 52.2995C3.90047 51.0158 3.16382 49.2779 3.15337 47.4627V43.5448H9.11927V47.4627C9.11927 47.7225 9.224 47.9716 9.41055 48.1553C9.597 48.339 9.84991 48.4421 10.1136 48.4421H49.8864C50.15 48.4421 50.4029 48.339 50.5895 48.1553C50.7759 47.9716 50.8806 47.7225 50.8806 47.4627V43.5448Z" fill="black"/>
</svg>
