<?xml version="1.0" encoding="iso-8859-1"?>
<!-- Generator: Adobe Illustrator 19.0.0, SVG Export Plug-In . SVG Version: 6.00 Build 0)  -->
<svg version="1.1" id="Layer_1" xmlns="http://www.w3.org/2000/svg" xmlns:xlink="http://www.w3.org/1999/xlink" x="0px" y="0px"
	 viewBox="0 0 512 512" style="enable-background:new 0 0 512 512;" xml:space="preserve">
<g>
	<g>
		<g>
			<path d="M256,192c-11.782,0-21.333,9.551-21.333,21.333v33.83l-36.418,36.418c-8.331,8.331-8.331,21.839,0,30.17
				c8.331,8.331,21.839,8.331,30.17,0l42.667-42.667c0.004-0.004,0.006-0.008,0.01-0.011c0.493-0.494,0.96-1.012,1.403-1.552
				c0.203-0.247,0.379-0.507,0.569-0.761c0.227-0.303,0.462-0.6,0.673-0.916c0.203-0.304,0.379-0.619,0.565-0.931
				c0.171-0.286,0.35-0.565,0.508-0.859c0.17-0.318,0.314-0.644,0.467-0.969c0.145-0.307,0.298-0.609,0.429-0.923
				c0.13-0.315,0.236-0.637,0.35-0.957c0.121-0.337,0.25-0.669,0.354-1.013c0.097-0.32,0.168-0.646,0.249-0.969
				c0.089-0.351,0.187-0.698,0.258-1.055c0.074-0.375,0.119-0.753,0.173-1.13c0.044-0.311,0.104-0.617,0.135-0.933
				c0.069-0.7,0.106-1.403,0.106-2.105v-42.667C277.333,201.551,267.782,192,256,192z"/>
			<path d="M285.04,467.376c-9.499,1.301-19.199,1.957-29.04,1.957c-117.818,0-213.333-95.515-213.333-213.333
				S138.182,42.667,256,42.667c62.278,0,100.069,11.948,138.326,42.667h-31.659c-11.782,0-21.333,9.551-21.333,21.333
				c0,11.782,9.551,21.333,21.333,21.333H448c11.782,0,21.333-9.551,21.333-21.333V21.333C469.333,9.551,459.782,0,448,0
				s-21.333,9.551-21.333,21.333v35.379C379.336,16.778,332.137,0,256,0C114.618,0,0,114.618,0,256s114.618,256,256,256
				c11.77,0,23.405-0.786,34.832-2.352c11.673-1.599,19.839-12.359,18.24-24.032C307.473,473.943,296.713,465.777,285.04,467.376z"
				/>
			<path d="M383.712,426.904c-12.348,9.243-25.66,17.127-39.709,23.497c-10.731,4.865-15.485,17.508-10.62,28.239
				c4.865,10.731,17.508,15.485,28.239,10.62c16.868-7.648,32.844-17.109,47.658-28.198c9.432-7.06,11.355-20.43,4.295-29.863
				C406.514,421.767,393.144,419.844,383.712,426.904z"/>
			<path d="M479.117,331.995c-10.761-4.798-23.374,0.036-28.172,10.797c-6.281,14.087-14.079,27.445-23.244,39.848
				c-7.001,9.476-4.995,22.834,4.481,29.835c9.476,7.001,22.834,4.995,29.835-4.481c10.995-14.881,20.355-30.914,27.897-47.829
				C494.712,349.405,489.878,336.792,479.117,331.995z"/>
			<path d="M490.667,234.675c-11.782,0-21.333,9.551-21.333,21.333c0,9.821-0.656,19.523-1.958,29.046
				c-1.596,11.673,6.573,22.431,18.247,24.027c11.673,1.596,22.431-6.573,24.027-18.247c1.565-11.445,2.351-23.078,2.351-34.826
				C512,244.226,502.449,234.675,490.667,234.675z"/>
			<path d="M256,106.667c-82.481,0-149.333,66.853-149.333,149.333S173.519,405.333,256,405.333S405.333,338.481,405.333,256
				S338.481,106.667,256,106.667z M256,362.667c-58.917,0-106.667-47.75-106.667-106.667S197.083,149.333,256,149.333
				c58.917,0,106.667,47.75,106.667,106.667S314.917,362.667,256,362.667z"/>
		</g>
	</g>
</g>
<g>
</g>
<g>
</g>
<g>
</g>
<g>
</g>
<g>
</g>
<g>
</g>
<g>
</g>
<g>
</g>
<g>
</g>
<g>
</g>
<g>
</g>
<g>
</g>
<g>
</g>
<g>
</g>
<g>
</g>
</svg>
