<svg width="60" height="60" viewBox="0 0 60 60" fill="none" xmlns="http://www.w3.org/2000/svg">
<path d="M57.0056 52.097V39.0112C56.9933 32.4967 54.5583 26.2126 50.1611 21.3467C45.7639 16.481 39.7093 13.3709 33.142 12.6045C34.2146 11.9486 35.041 10.9663 35.496 9.80635C35.9511 8.64637 36.0099 7.37192 35.6638 6.17602C35.3176 4.98012 34.5853 3.92792 33.5776 3.17878C32.57 2.42964 31.342 2.02438 30.0795 2.02438C28.8172 2.02438 27.5891 2.42964 26.5815 3.17878C25.5738 3.92792 24.8415 4.98012 24.4953 6.17602C24.1492 7.37192 24.208 8.64637 24.6631 9.80635C25.1181 10.9663 25.9445 11.9486 27.0171 12.6045C20.4498 13.3709 14.3952 16.481 9.998 21.3467C5.60084 26.2126 3.16584 32.4967 3.15341 39.0112V52.097H0.170456V57.9739H59.8295V52.097H57.0056ZM8.96023 39.0112C8.96023 33.5144 11.1769 28.2427 15.1226 24.3559C19.0684 20.469 24.4199 18.2854 30 18.2854C35.5801 18.2854 40.9316 20.469 44.8774 24.3559C48.8231 28.2427 51.0397 33.5144 51.0397 39.0112V52.097H8.96023V39.0112Z" fill="black"/>
<path d="M26.142 39.638L20.6534 34.1921L16.2784 38.5018L26.142 48.2182L43.7215 30.9011L39.3465 26.6306L26.142 39.638Z" fill="black"/>
</svg>
