<svg width="47" height="44" viewBox="0 0 47 44" fill="none" xmlns="http://www.w3.org/2000/svg">
<path d="M23.5846 0.703064L23.4075 43.2979L36.7886 26.1678C38.8576 23.512 40.081 20.2185 40.081 16.6508C40.081 7.89847 32.7122 0.793872 23.5846 0.703064Z" fill="#EF431D"/>
<path d="M37.1448 16.6507C37.1448 20.2185 36.1368 23.5119 34.4318 26.1678L23.4075 43.2979L10.0264 26.1678C7.95735 23.5119 6.73395 20.2185 6.73395 16.6507C6.73395 7.84229 14.1987 0.702118 23.4075 0.702118C23.4672 0.702118 23.5259 0.702118 23.5846 0.703054C31.0905 0.813522 37.1448 7.91156 37.1448 16.6507Z" fill="#FD7555"/>
<path d="M23.5464 3.54529V29.7562C31.0503 29.685 37.1096 23.8452 37.1096 16.6507C37.1096 9.45627 31.0503 3.61644 23.5464 3.54529Z" fill="#CCECFF"/>
<path d="M23.5465 3.54528C29.4286 3.63609 34.1734 9.46843 34.1734 16.6507C34.1734 23.833 29.4286 29.6654 23.5465 29.7562C23.5005 29.7571 23.4535 29.7571 23.4075 29.7571C15.84 29.7571 9.70535 23.8892 9.70535 16.6507C9.70535 9.41226 15.84 3.54434 23.4075 3.54434C23.4535 3.54434 23.5005 3.54434 23.5465 3.54528Z" fill="white"/>
<path d="M29.7692 10.3786V19.4594H27.8117C26.7302 19.4594 25.8543 18.6215 25.8543 17.5871V10.3786C25.8543 9.34503 26.7302 8.50623 27.8117 8.50623C28.8932 8.50623 29.7692 9.34503 29.7692 10.3786Z" fill="#99D9FF"/>
<path d="M22.9181 13.0002V14.1236C22.9181 15.6749 21.6037 16.9321 19.9819 16.9321C18.3602 16.9321 17.0458 15.6749 17.0458 14.1236V13.0002H19.9819H22.9181Z" fill="#99D9FF"/>
<path d="M23.4075 0C13.8089 0 6 7.46951 6 16.6506C6 20.2638 7.18886 23.6999 9.43884 26.5884L22.8195 43.7181C22.958 43.8955 23.176 44 23.4075 44C23.6389 44 23.8569 43.8955 23.9955 43.7181L37.3767 26.5877C39.626 23.7 40.815 20.2638 40.815 16.6506C40.815 7.46951 33.006 0 23.4075 0ZM36.2001 25.748L23.4075 42.1248L10.6155 25.7487C8.55643 23.1052 7.46808 19.9592 7.46808 16.6506C7.46808 8.24382 14.6184 1.40426 23.4075 1.40426C32.1965 1.40426 39.3469 8.24382 39.3469 16.6506C39.3469 19.9592 38.2585 23.1052 36.2001 25.748Z" fill="black"/>
<path d="M17.0458 7.80447C16.6404 7.80447 16.3117 8.11884 16.3117 8.5066V14.1236C16.3117 15.819 17.5747 17.2374 19.2479 17.5636V24.795C19.2479 25.1828 19.5766 25.4972 19.9819 25.4972C20.3873 25.4972 20.716 25.1828 20.716 24.795V17.5636C22.3892 17.2374 23.6522 15.819 23.6522 14.1236V8.5066C23.6522 8.11884 23.3235 7.80447 22.9181 7.80447C22.5127 7.80447 22.1841 8.11884 22.1841 8.5066V12.2981H20.716V8.5066C20.716 8.11884 20.3873 7.80447 19.9819 7.80447C19.5766 7.80447 19.2479 8.11884 19.2479 8.5066V12.2981H17.7798V8.5066C17.7798 8.11884 17.4512 7.80447 17.0458 7.80447ZM22.1841 13.7023V14.1236C22.1841 15.2851 21.1963 16.23 19.9819 16.23C18.7676 16.23 17.7798 15.2851 17.7798 14.1236V13.7023H22.1841Z" fill="black"/>
<path d="M29.7692 25.4972C30.1746 25.4972 30.5032 25.1829 30.5032 24.7951V10.3789C30.5032 8.95933 29.2959 7.80447 27.8117 7.80447C26.3276 7.80447 25.1202 8.95933 25.1202 10.3789V17.5875C25.1202 19.0071 26.3276 20.1619 27.8117 20.1619H29.0351V24.7951C29.0351 25.1829 29.3638 25.4972 29.7692 25.4972ZM27.8117 18.7577C27.1371 18.7577 26.5883 18.2328 26.5883 17.5875V10.3789C26.5883 9.73364 27.1371 9.20873 27.8117 9.20873C28.4864 9.20873 29.0351 9.73364 29.0351 10.3789V18.7577H27.8117Z" fill="black"/>
<path d="M23.4075 2.84213C15.4473 2.84213 8.97131 9.03658 8.97131 16.6506C8.97131 19.7933 10.1056 22.8694 12.1652 25.3124C12.4197 25.6143 12.8818 25.6617 13.1973 25.4182C13.5129 25.1747 13.5624 24.7327 13.3079 24.4309C11.4312 22.2049 10.4393 19.5146 10.4393 16.6506C10.4393 9.81089 16.2567 4.24639 23.4074 4.24639C30.558 4.24639 36.3755 9.81089 36.3755 16.6506C36.3755 23.4904 30.558 29.0549 23.4074 29.0549C20.4132 29.0549 17.6006 28.1061 15.2736 26.311C14.9581 26.0675 14.4959 26.1149 14.2414 26.4168C13.9869 26.7186 14.0364 27.1607 14.352 27.4041C16.9059 29.3741 20.1219 30.4592 23.4074 30.4592C31.3675 30.4592 37.8436 24.2647 37.8436 16.6506C37.8436 9.03658 31.3676 2.84213 23.4075 2.84213Z" fill="black"/>
</svg>
