<svg width="152" height="45" viewBox="0 0 152 45" fill="none" xmlns="http://www.w3.org/2000/svg">
<path d="M145.889 45H5.61111C2.5264 45 0 42.4673 0 39.375V5.62501C0 2.53267 2.5264 1.41886e-05 5.61111 1.41886e-05H145.889C148.974 1.41886e-05 151.5 2.53267 151.5 5.62501V39.375C151.5 42.4673 148.974 45 145.889 45Z" fill="black"/>
<path d="M145.889 0.901418C148.487 0.901418 150.601 3.02064 150.601 5.62501V39.375C150.601 41.9794 148.487 44.0986 145.889 44.0986H5.61111C3.01317 44.0986 0.89918 41.9794 0.89918 39.375V5.62501C0.89918 3.02064 3.01317 0.901418 5.61111 0.901418H145.889ZM145.889 1.41886e-05H5.61111C2.5264 1.41886e-05 0 2.53267 0 5.62501V39.375C0 42.4673 2.5264 45 5.61111 45H145.889C148.974 45 151.5 42.4673 151.5 39.375V5.62501C151.5 2.53267 148.974 1.41886e-05 145.889 1.41886e-05Z" fill="#A6A6A6"/>
<path d="M53.2129 11.5242C53.2129 12.4636 52.9324 13.2159 52.3797 13.777C51.7442 14.4422 50.9166 14.7769 49.9024 14.7769C48.9331 14.7769 48.1054 14.4365 47.4265 13.7658C46.7461 13.0851 46.4067 12.2498 46.4067 11.25C46.4067 10.2501 46.7461 9.41483 47.4265 8.73983C48.1054 8.06343 48.9331 7.72311 49.9024 7.72311C50.3849 7.72311 50.845 7.82296 51.2841 8.00858C51.7218 8.19561 52.0781 8.44874 52.3362 8.76093L51.7498 9.35436C51.2996 8.8214 50.6865 8.55843 49.9024 8.55843C49.1954 8.55843 48.5824 8.80593 48.0619 9.30514C47.5471 9.80577 47.289 10.4541 47.289 11.25C47.289 12.0459 47.5471 12.6998 48.0619 13.2005C48.5824 13.694 49.1954 13.9472 49.9024 13.9472C50.6529 13.9472 51.2841 13.694 51.7821 13.1948C52.1104 12.8644 52.2969 12.4087 52.346 11.8266H49.9024V11.0137H53.1624C53.2017 11.1895 53.2129 11.3597 53.2129 11.5242Z" fill="white" stroke="white" stroke-width="0.16" stroke-miterlimit="10"/>
<path d="M58.385 8.70607H55.3227V10.8436H58.0834V11.6564H55.3227V13.7939H58.385V14.6222H54.4558V7.87779H58.385V8.70607Z" fill="white" stroke="white" stroke-width="0.16" stroke-miterlimit="10"/>
<path d="M62.035 14.6222H61.1681V8.70607H59.2897V7.87779H63.9147V8.70607H62.035V14.6222Z" fill="white" stroke="white" stroke-width="0.16" stroke-miterlimit="10"/>
<path d="M67.2618 14.6222V7.87779H68.1273V14.6222H67.2618Z" fill="white" stroke="white" stroke-width="0.16" stroke-miterlimit="10"/>
<path d="M71.9639 14.6222H71.104V8.70607H69.2187V7.87779H73.8492V8.70607H71.9639V14.6222Z" fill="white" stroke="white" stroke-width="0.16" stroke-miterlimit="10"/>
<path d="M82.6053 13.7545C81.9418 14.4366 81.1198 14.7769 80.1393 14.7769C79.1531 14.7769 78.3311 14.4366 77.6676 13.7545C77.0055 13.0739 76.6758 12.2386 76.6758 11.25C76.6758 10.2614 77.0055 9.42608 77.6676 8.74546C78.3311 8.06343 79.1531 7.72311 80.1393 7.72311C81.1142 7.72311 81.9362 8.06343 82.5997 8.75108C83.2675 9.43733 83.5971 10.267 83.5971 11.25C83.5971 12.2386 83.2675 13.0739 82.6053 13.7545ZM78.3086 13.1892C78.808 13.6941 79.4154 13.9472 80.1393 13.9472C80.8575 13.9472 81.4705 13.6941 81.9643 13.1892C82.4623 12.6844 82.7148 12.0361 82.7148 11.25C82.7148 10.4639 82.4623 9.81561 81.9643 9.31077C81.4705 8.80593 80.8575 8.5528 80.1393 8.5528C79.4154 8.5528 78.808 8.80593 78.3086 9.31077C77.8106 9.81561 77.5581 10.4639 77.5581 11.25C77.5581 12.0361 77.8106 12.6844 78.3086 13.1892Z" fill="white" stroke="white" stroke-width="0.16" stroke-miterlimit="10"/>
<path d="M84.8133 14.6222V7.87779H85.8654L89.1367 13.1231H89.1745L89.1367 11.8265V7.87779H90.0022V14.6222H89.0988L85.6732 9.1181H85.6353L85.6732 10.4203V14.6222H84.8133Z" fill="white" stroke="white" stroke-width="0.16" stroke-miterlimit="10"/>
<path d="M76.4626 24.4716C73.8268 24.4716 71.6735 26.4826 71.6735 29.2571C71.6735 32.0091 73.8268 34.0412 76.4626 34.0412C79.104 34.0412 81.2573 32.0091 81.2573 29.2571C81.2573 26.4826 79.104 24.4716 76.4626 24.4716ZM76.4626 32.1568C75.0163 32.1568 73.7721 30.9601 73.7721 29.2571C73.7721 27.5316 75.0163 26.356 76.4626 26.356C77.9089 26.356 79.1587 27.5316 79.1587 29.2571C79.1587 30.9601 77.9089 32.1568 76.4626 32.1568ZM66.0133 24.4716C63.3719 24.4716 61.2242 26.4826 61.2242 29.2571C61.2242 32.0091 63.3719 34.0412 66.0133 34.0412C68.6533 34.0412 70.8024 32.0091 70.8024 29.2571C70.8024 26.4826 68.6533 24.4716 66.0133 24.4716ZM66.0133 32.1568C64.5656 32.1568 63.3172 30.9601 63.3172 29.2571C63.3172 27.5316 64.5656 26.356 66.0133 26.356C67.4596 26.356 68.7038 27.5316 68.7038 29.2571C68.7038 30.9601 67.4596 32.1568 66.0133 32.1568ZM53.5791 25.9384V27.9718H58.4229C58.2812 29.108 57.9025 29.9433 57.3217 30.5255C56.6147 31.2287 55.5135 32.0091 53.5791 32.0091C50.5982 32.0091 48.264 29.5974 48.264 26.6091C48.264 23.6209 50.5982 21.2091 53.5791 21.2091C55.1909 21.2091 56.3636 21.8405 57.2291 22.659L58.6586 21.226C57.448 20.0673 55.8376 19.1771 53.5791 19.1771C49.4914 19.1771 46.056 22.5113 46.056 26.6091C46.056 30.7069 49.4914 34.0412 53.5791 34.0412C55.7885 34.0412 57.448 33.3155 58.7525 31.9543C60.0894 30.6141 60.506 28.7298 60.506 27.2082C60.506 26.7357 60.4667 26.3012 60.3966 25.9384H53.5791ZM104.424 27.5148C104.03 26.4446 102.814 24.4716 100.336 24.4716C97.8816 24.4716 95.8378 26.4109 95.8378 29.2571C95.8378 31.9374 97.8606 34.0412 100.572 34.0412C102.765 34.0412 104.03 32.701 104.55 31.9205L102.923 30.8335C102.38 31.6294 101.641 32.1568 100.572 32.1568C99.5102 32.1568 98.7485 31.6688 98.2604 30.7069L104.644 28.059L104.424 27.5148ZM97.9153 29.108C97.8606 27.263 99.3447 26.318 100.408 26.318C101.241 26.318 101.948 26.7357 102.184 27.3334L97.9153 29.108ZM92.7264 33.7501H94.825V19.6876H92.7264V33.7501ZM89.2896 25.5376H89.2195C88.7481 24.9779 87.849 24.4716 86.7099 24.4716C84.3196 24.4716 82.134 26.5754 82.134 29.2726C82.134 31.9543 84.3196 34.0412 86.7099 34.0412C87.849 34.0412 88.7481 33.5307 89.2195 32.9541H89.2896V33.6404C89.2896 35.4699 88.3147 36.4529 86.7422 36.4529C85.46 36.4529 84.6647 35.5248 84.3364 34.7443L82.5114 35.5079C83.0374 36.7763 84.4304 38.3372 86.7422 38.3372C89.2026 38.3372 91.2787 36.886 91.2787 33.3549V24.7627H89.2896V25.5376ZM86.8895 32.1568C85.4432 32.1568 84.2326 30.9432 84.2326 29.2726C84.2326 27.5865 85.4432 26.356 86.8895 26.356C88.3147 26.356 89.4383 27.5865 89.4383 29.2726C89.4383 30.9432 88.3147 32.1568 86.8895 32.1568ZM114.249 19.6876H109.23V33.7501H111.323V28.4218H114.249C116.574 28.4218 118.853 26.7357 118.853 24.054C118.853 21.3737 116.568 19.6876 114.249 19.6876ZM114.304 26.4657H111.323V21.6437H114.304C115.867 21.6437 116.759 22.9444 116.759 24.054C116.759 25.1424 115.867 26.4657 114.304 26.4657ZM127.242 24.4449C125.73 24.4449 124.157 25.1143 123.51 26.5979L125.368 27.3784C125.767 26.5979 126.502 26.3448 127.28 26.3448C128.365 26.3448 129.467 26.9987 129.483 28.1532V28.3008C129.105 28.0815 128.294 27.7566 127.296 27.7566C125.296 27.7566 123.258 28.8605 123.258 30.9207C123.258 32.8051 124.896 34.0187 126.738 34.0187C128.147 34.0187 128.924 33.3816 129.412 32.6405H129.483V33.7276H131.505V28.3332C131.505 25.8399 129.648 24.4449 127.242 24.4449ZM126.989 32.1512C126.305 32.1512 125.351 31.8108 125.351 30.9601C125.351 29.8716 126.54 29.454 127.57 29.454C128.492 29.454 128.924 29.6579 129.483 29.9265C129.319 31.2287 128.201 32.1512 126.989 32.1512ZM138.869 24.7529L136.464 30.849H136.392L133.905 24.7529H131.648L135.385 33.2719L133.253 38.0124H135.44L141.198 24.7529H138.869ZM120.003 33.7501H122.102V19.6876H120.003V33.7501Z" fill="white"/>
<path d="M11.7104 8.48103C11.3807 8.82697 11.1899 9.36556 11.1899 10.0631V34.9424C11.1899 35.6399 11.3807 36.1785 11.7104 36.5245L11.7917 36.6004L25.6989 22.6645V22.3354L11.7917 8.39947L11.7104 8.48103Z" fill="url(#paint0_linear_15_147)"/>
<path d="M30.3294 27.3122L25.6989 22.6645V22.3355L30.335 17.6878L30.4389 17.7483L35.9293 20.88C37.4962 21.7688 37.4962 23.2313 35.9293 24.1256L30.4389 27.2517L30.3294 27.3122Z" fill="url(#paint1_linear_15_147)"/>
<path d="M30.4389 27.2517L25.6989 22.5L11.7104 36.5245C12.2308 37.073 13.0795 37.1391 14.0446 36.5906L30.4389 27.2517Z" fill="url(#paint2_linear_15_147)"/>
<path d="M30.4389 17.7483L14.0446 8.40938C13.0795 7.86657 12.2308 7.93266 11.7104 8.4811L25.6989 22.5L30.4389 17.7483Z" fill="url(#paint3_linear_15_147)"/>
<defs>
<linearGradient id="paint0_linear_15_147" x1="24.4641" y1="35.2015" x2="5.58394" y2="16.368" gradientUnits="userSpaceOnUse">
<stop stop-color="#00A0FF"/>
<stop offset="0.0066" stop-color="#00A1FF"/>
<stop offset="0.2601" stop-color="#00BEFF"/>
<stop offset="0.5122" stop-color="#00D2FF"/>
<stop offset="0.7604" stop-color="#00DFFF"/>
<stop offset="1" stop-color="#00E3FF"/>
</linearGradient>
<linearGradient id="paint1_linear_15_147" x1="37.9697" y1="22.4984" x2="10.8154" y2="22.4984" gradientUnits="userSpaceOnUse">
<stop stop-color="#FFE000"/>
<stop offset="0.4087" stop-color="#FFBD00"/>
<stop offset="0.7754" stop-color="#FFA500"/>
<stop offset="1" stop-color="#FF9C00"/>
</linearGradient>
<linearGradient id="paint2_linear_15_147" x1="27.8614" y1="19.9169" x2="2.2584" y2="-5.6229" gradientUnits="userSpaceOnUse">
<stop stop-color="#FF3A44"/>
<stop offset="1" stop-color="#C31162"/>
</linearGradient>
<linearGradient id="paint3_linear_15_147" x1="8.18919" y1="44.8018" x2="19.6221" y2="33.3972" gradientUnits="userSpaceOnUse">
<stop stop-color="#32A071"/>
<stop offset="0.0685" stop-color="#2DA771"/>
<stop offset="0.4762" stop-color="#15CF74"/>
<stop offset="0.8009" stop-color="#06E775"/>
<stop offset="1" stop-color="#00F076"/>
</linearGradient>
</defs>
</svg>
