<svg width="50" height="60" viewBox="0 0 50 60" fill="none" xmlns="http://www.w3.org/2000/svg">
<g clip-path="url(#clip0_30_4)">
<path d="M42.5781 6.87311C37.8512 2.52802 31.6345 0.180767 25.2242 0.32078C18.8139 0.460794 12.7049 3.07727 8.17112 7.62463C3.6373 12.1719 1.02861 18.2992 0.889007 24.7286C0.74941 31.158 3.08968 37.3932 7.42183 42.1343L25 60L42.5781 42.3694C44.9189 40.0483 46.7773 37.2844 48.0457 34.2379C49.3141 31.1914 49.9671 27.9227 49.9671 24.6212C49.9671 21.3198 49.3141 18.0511 48.0457 15.0046C46.7773 11.958 44.9189 9.19415 42.5781 6.87311ZM38.4375 38.2164L25 51.4981L11.5625 38.0205C8.0011 34.4368 6.00134 29.5831 6.00134 24.5233C6.00134 19.4634 8.0011 14.6098 11.5625 11.0261C15.1339 7.46604 19.9646 5.46787 25 5.46787C30.0353 5.46787 34.866 7.46604 38.4375 11.0261C41.9988 14.6098 43.9986 19.4634 43.9986 24.5233C43.9986 29.5831 41.9988 34.4368 38.4375 38.0205V38.2164ZM25 13.9645C22.8754 13.9645 20.7985 14.5964 19.0319 15.7804C17.2654 16.9642 15.8885 18.6469 15.0754 20.6156C14.2624 22.5844 14.0497 24.7507 14.4642 26.8408C14.8787 28.9307 15.9018 30.8506 17.4041 32.3574C18.9064 33.8642 20.8204 34.8903 22.9043 35.306C24.988 35.7218 27.1479 35.5084 29.1108 34.6929C31.0737 33.8774 32.7514 32.4964 33.9318 30.7247C35.1121 28.9528 35.7421 26.8697 35.7421 24.7388C35.7421 21.8813 34.6104 19.1408 32.5958 17.1202C30.5813 15.0997 27.8489 13.9645 25 13.9645ZM25 29.6361C24.0342 29.6361 23.0902 29.349 22.2872 28.8108C21.4842 28.2727 20.8584 27.5078 20.4888 26.613C20.1193 25.7181 20.0226 24.7333 20.211 23.7834C20.3994 22.8333 20.8644 21.9607 21.5473 21.2758C22.2302 20.5909 23.1002 20.1244 24.0474 19.9355C24.9946 19.7465 25.9763 19.8435 26.8686 20.2142C27.7607 20.5848 28.5233 21.2126 29.0599 22.0179C29.5964 22.8233 29.8828 23.7702 29.8828 24.7388C29.8828 26.0377 29.3683 27.2833 28.4526 28.2018C27.537 29.1202 26.295 29.6361 25 29.6361Z" fill="black"/>
</g>
<defs>
<clipPath id="clip0_30_4">
<rect width="50" height="60" fill="white"/>
</clipPath>
</defs>
</svg>
