<?xml version="1.0" encoding="UTF-8"?> <svg xmlns="http://www.w3.org/2000/svg" width="69" height="100"><path d="M68.421 77.214L69 69.782l-.965-7.523-2.359-7.626-3.967-6.905s-3.93-4.958-4.826-5.72c-.39-.332-5.667-6.944-5.667-6.944l-.501-7.049-.944-5.33-1.947-5.275-.708-2.211.767-.625 2.124-.85 3.009-1.19 3.127-3.006 1.417-4.027-.119-2.267-.295-1.249-2.714-1.36L51.01 0l-7.199 2.949-.944 1.078-1.12 3.914-.119.793-.766.227-2.066-1.474-3.186-.852-5.842.398-5.487 1.644-3.776 2.835-.886-.453-.944-2.722-.885-1.587s-.59-.795-.767-.908c-.177-.113-1.829-1.532-1.829-1.532s-3.364-.907-3.835-.963c-.473-.057-4.071 1.19-4.071 1.19l-.886 2.835 1.417 5.842 1.888 2.892 3.599 1.078 2.36-.057.65.965-2.42 5.103-.708 2.608-.885 8.847.51 5.195.59 3.831-5.361 4.277-4.878 9.327-3.095 9.768L0 71.637l.161 4.225.054 2.37.429 3.659 1.018 3.04 2.603 3.876 3.678 4L8 92.84l1.68 1.953c4.036 1.835 2.697-.142 4.71-.062 1.762.07.829-.807 2.618-.675 1.959.144.55-1.206 3.133-.98.975.086.539-1.137 2.08-1.26 1.538-.124-.571-3.188-1.823-5.008-.784-1.14-2.113-2.033-3.158-2.817-.215-.162-.473-.35-.768-.559l1.757.108 12.708-12.426-4.265-4.455-2.065.34-1.475-.793-9.914-10.265v-.51l1.18-.17.827.17 7.08 7.543.885-.17v-.625s-7.906-7.543-7.906-7.713c0-.169-.059-.737-.059-.737l.65-.34 1.12.567 7.789 7.656.517-.859-7.716-7.875v-.85l.414-.34.714.178 9.906 9.576.59 1.474.152 1.76 4.214 4.535 6.689-6.9 5.703-5.576 4.365-4.933 1.476 1.814.531 2.155s-.649 2.438-.826 2.496c-.177.056-3.718 4.082-3.718 4.082l-5.545 5.445-2.309 2.246-1.763-.942-2.74 2.449 9.834 10.907 7.966-1.953-1.609 1.648-1.287 1.237c-.664.559-2.075 1.736-3.232 2.926-1.214 1.248-2.165 2.505-2.476 2.84-2.463 2.635-5.252 8.272-3.356 8.402 1.358.095.844 1.03 1.757.951 1.714-.15.869.92 2.086.598 1.13-.297 1.086.843 2.056.53 1.383-.448.49 1.368 3.847-.48.347-.191 3.401-1.391 6.487-3.988 1.064-.895 3.768-3.684 6.003-7.017l.018-.021.012-.024c1.054-1.578 2.002-3.275 2.621-4.952l.475-.899 1.781-5.037zM38.03 34.537l-1.653 2.835-2.36 1.361-2.241.567-2.242-.68-5.665-2.041-.709-1.816 1.417-4.877 1.77-3.629 2.006-3.856 1.062-.908 2.478.228 1.652.34 1.18 1.475.59 2.721.945 1.701 1.77 6.58zm-5.9-.34l1.534-2.099-.236-.908-1.889-1.417-1.415-.283-3.776 1.133-.768 1.758.944 1.362 2.124 1.531 1.83.17 1.652-1.247zM29.504 84.18c.414 0 9.44-.283 10.09-.283.649 0 2.833-.63 2.833-.63l-8.973-10.086-4.235 3.968-6.272 6.853s6.144.178 6.557.178z" fill="#FFFFFE" fill-rule="evenodd"></path></svg> 